<svg width="15" height="10" viewBox="0 0 15 10" fill="none" xmlns="http://www.w3.org/2000/svg">
<path d="M6.2158 9.27956C6.08453 9.27983 5.95451 9.25417 5.83318 9.20406C5.71186 9.15395 5.60162 9.08038 5.5088 8.98756L1.2668 4.74456C1.17123 4.65238 1.09497 4.54209 1.04248 4.42013C0.989982 4.29816 0.962305 4.16696 0.961058 4.03418C0.959811 3.9014 0.98502 3.76971 1.03521 3.64678C1.08541 3.52385 1.15958 3.41214 1.25341 3.31819C1.34723 3.22423 1.45883 3.1499 1.58169 3.09953C1.70455 3.04916 1.83621 3.02377 1.96899 3.02482C2.10177 3.02588 2.23301 3.05337 2.35505 3.1057C2.47709 3.15802 2.58749 3.23412 2.6798 3.32956L6.2148 6.86456L12.5798 0.501562C12.7673 0.313921 13.0217 0.208453 13.2869 0.208359C13.5522 0.208265 13.8067 0.313553 13.9943 0.501061C14.1819 0.68857 14.2874 0.942938 14.2875 1.20821C14.2876 1.47348 14.1823 1.72792 13.9948 1.91556L6.9228 8.98756C6.82998 9.08038 6.71974 9.15395 6.59842 9.20406C6.47709 9.25417 6.34707 9.27983 6.2158 9.27956Z" fill="#2FAB73"/>
</svg>
